<svg
  xmlns="http://www.w3.org/2000/svg"
  viewBox="0 0 1525 445"
  preserveAspectRatio="xMidYMid meet"
><path fill="currentColor" d="M408 1c139.935 0 139.935 0 178.176 38.172 20.126 21.458 30.692 50.553 30.011 79.82-1.116 28.86-12.162 54.395-32.187 75.008l-1.848 2.035C564.817 214.55 538.688 225.473 514 229H408zm65 71v85c34.437 1.989 34.437 1.989 62-12.879 7.696-8.21 11.826-17.986 12.066-29.219C546.543 101.6 541.614 92.063 532 83c-16.927-15.28-36.252-11-59-11M987 0l56.313-.187 17.669-.083c7.214-.014 7.214-.014 10.609-.016q3.497-.008 6.995-.03C1108.219-.503 1135.85 2.443 1159 23l2.078 1.793c14.162 13.075 22.294 32.414 23.242 51.46.637 21.126-4.93 40.267-19.05 56.36-15.609 16.415-36.388 26.99-59.182 27.708-7.886.117-15.764.027-23.65-.071L1054 160v69h-67zm68 56v51l16.938.25 5.288.11c7.989.097 14.828.136 21.774-4.36l2.75-1.75c5.394-5.394 8.375-11.228 8.563-18.875-.095-7.825-2.215-13.36-7.438-19.187-9.348-8.25-19.757-7.692-31.5-7.438zM794.126 65.886h2.722q4.432.002 8.863.016l6.162.005q8.093.006 16.187.024 8.265.014 16.53.02 16.205.016 32.41.049.142 31.855.207 63.711.028 14.793.095 29.586.06 12.904.074 25.807c.006 4.55.018 9.098.047 13.647q.039 6.441.03 12.883 0 2.346.024 4.692c.222 23.615-7.566 44.18-23.727 61.486-16.94 16.044-37.926 21.72-60.77 21.481q-2.392-.009-4.787-.013c-4.154-.011-8.308-.04-12.462-.074-5.009-.036-10.018-.05-15.026-.067-7.569-.03-15.137-.087-22.705-.139v-54c24.375-.375 24.375-.375 32.01-.478l6.076-.108 3.116-.034c8.4-.167 16.693-.495 23.798-5.38h2c1.44-3.07 2.186-5.843 2.566-9.188L808 226l-1.965.063c-24.936.698-45.273-3.747-64.035-21.063l-2.133-1.855c-12.594-11.583-21.838-30.066-23.086-47.15-.48-13.414-.698-26.332 4.219-38.995l1.133-2.953C730.826 93.436 745.485 79.727 766 71c9.458-3.408 18.11-5.156 28.126-5.114m-10.294 59.259c-4.624 4.682-7.078 10.36-7.394 16.917.448 7.33 2.988 12.824 8.375 17.813C795.239 168.775 804.665 166 819 166v-48c-19.35-.785-19.35-.785-35.168 7.145M208 0c104.92 0 104.92 0 132 23l2.23 1.793C348.576 30.09 353.322 36.213 358 43l1.688 2.43c3.194 4.94 5.466 10.095 7.562 15.57l.747 1.94c8.038 22.017 5.922 47.758-3.685 68.873-11.307 23.303-31.099 39.936-55.305 48.523C277.387 190.79 237.605 185 208 185zM164 184v184c-110.312 0-110.312 0-139.148-27.992C6.938 321.705-.286 298.245-.317 273.1c.273-24.238 10.684-45.689 27.825-62.683C65.218 174.56 113.378 184 164 184M1357 59l52.938-.187 16.616-.083c6.78-.014 6.78-.014 9.968-.016q3.29-.008 6.578-.03c24.425-.163 48.333 1.58 67.213 19.066 10.514 11.203 14.337 26.012 14.141 41.017l.002 3.641c-.002 3.25-.022 6.498-.05 9.747-.026 3.413-.028 6.825-.033 10.238-.012 6.442-.045 12.884-.085 19.325-.05 8.065-.071 16.13-.093 24.194-.038 14.363-.119 28.725-.195 43.088h-68l-.113-21.629q-.045-6.787-.096-13.576c-.054-7.18-.105-14.361-.137-21.542q-.04-8.685-.117-17.37-.025-3.312-.035-6.623c-.01-3.096-.037-6.19-.07-9.286l.005-2.757c-.081-5.48-.805-9.375-3.437-14.217-5.037-3.904-10.901-3.653-17-3-3.882 1.248-5.409 2.095-7.63 5.495-1.797 4.596-1.81 8.566-1.802 13.458l-.031 2.987c-.03 3.247-.04 6.493-.049 9.74q-.026 3.384-.054 6.767c-.048 5.928-.077 11.857-.104 17.785-.035 7.118-.092 14.235-.145 21.353-.078 10.805-.13 21.61-.185 32.415h-68zM1313 76c17.34 13.895 28.191 32.03 32 54l.395 2.16c1.27 8.248 2.442 21.167-1.395 28.84h-92c.705 11.1.705 11.1 6.75 18.75 7.768 4.315 16.857 3.594 25.469 3.664q2.202.028 4.405.059c3.84.05 7.68.09 11.52.128 3.929.04 7.857.091 11.786.141q11.535.144 23.07.258c-1.93 11.434-14.208 22.901-23.254 29.41-19.693 13.492-41.762 18.601-65.375 14.969-20.667-3.921-39.966-16.443-52.512-33.246A126 126 0 0 1 1189 187l-1.39-2.488c-10.656-20.124-12.189-42.687-6.61-64.512 4.22-13.44 10.698-24.475 20-35l1.605-1.895C1230.698 52.27 1280.895 51.862 1313 76m-55.797 30.941C1252.208 113.4 1252 116.126 1252 125h39c.122-9.338.122-9.338-4-17-5.456-5.05-10.124-7.403-17.594-7.27-5.025.563-8.772 2.504-12.203 6.211M898 69h67v160h-67zM632 69h67v160h-67zM173 0h26v368h-26zM920.785 15.602l2.729-.01q2.835-.002 5.67.017c2.875.016 5.748 0 8.623-.02q2.77.004 5.54.013l2.574-.019c5.67.066 9.908 1.04 15.079 3.417 5.651 5.796 5.183 11.24 5.188 18.875l.037 3.012.005 2.918.013 2.655c-.337 3.524-1.247 6.442-3.645 9.087-4.107 3.218-6.878 4.57-12.05 4.614l-2.722.03-2.935.012-3.031.017q-3.178.014-6.355.02c-3.229.01-6.456.04-9.685.072q-3.09.01-6.18.016l-2.91.038c-6.954-.023-11.9-.676-17.134-5.651-1.931-3.286-2.112-5.356-2.127-9.153l-.016-3.71L897.5 38c-.015-1.271-.03-2.542-.047-3.852l.016-3.71.013-3.38c.664-3.919 1.562-5.387 4.518-8.058 6.055-3.025 12.125-3.446 18.785-3.398M654.531 15.602l2.655-.01q2.757-.002 5.516.017c2.791.016 5.58 0 8.372-.02q2.697.004 5.395.013l2.491-.019c6.887.082 13.32.956 18.567 5.704 2.819 5.192 2.085 10.877 2.035 16.65l.073 3.827c-.017 10.32-.017 10.32-2.858 13.99-5.825 4.711-11.118 4.553-18.336 4.547l-3.096.013q-3.237.008-6.473.002c-3.294-.003-6.588.02-9.882.045q-3.15.004-6.299.002l-2.974.028c-6.707-.045-11.085-.823-16.059-5.676-2.01-3.291-2.174-5.314-2.19-9.153l-.015-3.71L631.5 38c-.015-1.271-.03-2.542-.047-3.852l.016-3.71.013-3.38c.664-3.919 1.562-5.387 4.518-8.058 5.98-2.974 11.955-3.447 18.531-3.398M1182 316c8 0 8 0 10.363 1.984l1.95 2.766 2.269 3.047 1.182 1.603c2.077 2.689 4.408 5.13 6.736 7.6 4.458 4.781 8.633 9.718 12.723 14.82 1.743 2.214 1.743 2.214 3.777 4.18l1-36h9v53c-8 0-8 0-11.09-2.457a107 107 0 0 1-2.848-3.356l-1.55-1.788A287 287 0 0 1 1211 356l-2.418-2.926q-3.295-4.033-6.582-8.074l-10-11-1 35h-9zM434 316c8 0 8 0 9.895 1.139l1.273 1.615 1.498 1.819 1.522 1.99q1.676 2.063 3.355 4.125l1.716 2.156c2.818 3.49 5.784 6.847 8.741 10.219q1.565 1.797 3.125 3.597l1.32 1.52c2.21 2.586 4.378 5.207 6.555 7.82l1-36h9v53c-8 0-8 0-10.871-2.238a88 88 0 0 1-2.567-3.075l-1.407-1.646A266 266 0 0 1 464 357l-2.352-2.86a814 814 0 0 1-4.37-5.39c-3.295-3.979-6.793-7.753-10.31-11.535C445 335 445 335 444 333l-1 36h-9zM868.938 315.625l2.136.033c8.674.266 13.83 2.491 20.164 8.377 4.759 5.307 6.465 11.174 7.012 18.152-.528 8.056-2.663 14.222-8.277 20.122-7.862 6.74-17.068 7.46-27.008 6.909-6.715-.744-11.502-4.399-15.965-9.218-5.193-6.559-6.387-13.296-5.824-21.59 1.167-7.653 4.736-12.48 10.261-17.723 5.756-3.79 10.625-5.206 17.5-5.062M854 331c-3.7 5.232-3.93 10.815-3 17 2.2 5.652 5.632 9.145 11 12 4.854 1.879 9.787 1.418 14.625-.25 5.67-2.94 9.244-5.58 11.375-11.75.919-6.592.537-11.884-3.457-17.344-4.259-4.571-9.098-6.316-15.273-6.758-5.95.267-11.092 2.924-15.27 7.102M1287.883 319.39c7.278 5.533 11.135 11.752 12.43 20.794.417 7.318-1.565 14.54-6.301 20.187-8.312 7.824-15.14 9.187-26.453 8.906-8.355-.65-13.993-3.997-19.559-10.277-5.106-7.085-5.02-15.605-4-24 2.558-8.626 7.721-13.666 15.438-17.875 8.96-2.9 20.335-2.595 28.445 2.266M1256 332c-3.232 4.904-3.853 9.283-3 15 1.67 5.548 4.448 8.891 9.219 12.09 4.15 2.12 8.172 2.222 12.781 1.91 5.931-2.045 10.44-4.438 13.75-9.875 2.439-6.096 2.481-9.93.184-16.016-2.563-5.79-5.99-8.09-11.704-10.382-8.174-2.663-15.999.846-21.23 7.273M1396.18 318.816c6.579 4.278 10.505 8.632 12.82 16.184 1.09 8.176.864 15.691-3.383 22.914-4.36 5.624-10.007 8.666-16.617 11.086-2.732.306-5.157.48-7.875.438l-2.127-.026c-7.825-.254-13.015-2.387-18.81-7.537-4.929-5.375-7.355-11.67-7.626-18.937.403-8.047 2.752-14.3 8.383-20.141 9.45-8.265 24.026-10.139 35.235-3.98m-29.618 11.247c-3.684 4.888-5.03 10.3-4.25 16.367 1.588 5.892 4.649 9.26 9.688 12.57 4.126 2.328 8.35 2.679 13 2 6.178-1.936 10.421-5.663 14-11 1.71-5.13 1.646-10.061-.062-15.187-3.785-5.494-8.303-9.37-14.938-10.813-6.331-.856-13.03 1.482-17.437 6.063M721 395c6.354 4.122 9.595 9.317 11.75 16.5.907 9.068.009 16.446-5.812 23.75-5.878 6.085-11.768 8.905-20.2 9.34-8.833.14-15.8-1.149-22.566-7.235-6.538-7.03-7.756-13.479-7.516-22.914.737-7.37 3.786-12.941 9.242-17.933 10.51-7.54 23.988-7.71 35.102-1.508m-31.312 11.438c-3.305 5.018-4.588 9.528-3.688 15.562 2.13 6.343 5.39 9.995 11.25 13.25 5.57 1.519 10.691 1.534 16-.875 5.275-3.016 8.553-6.82 10.25-12.687.876-5.11.122-9.209-2.5-13.688-3.858-4.274-7.54-7.664-13.453-8.238-7.888-.21-12.271.785-17.86 6.676M472 392c8 0 8 0 10.652 2.02l2.286 2.793 2.562 3.054q1.253 1.564 2.5 3.133l4.438 5.438 2.183 2.71c3.151 3.778 6.472 7.382 9.838 10.969 3.443 3.686 3.443 3.686 4.541 5.883l1-36h8v52c-8 0-8 0-9.867-1.126l-1.223-1.585-1.422-1.758-1.425-1.906a2753 2753 0 0 0-3.11-3.887l-1.517-1.939c-1.937-2.427-4.016-4.706-6.123-6.986-4.599-5.132-8.95-10.48-13.313-15.813l-1 35h-9zM1468 320v9c-3.24-.523-6.13-1.413-9.187-2.562-6.246-2.114-12.108-2.569-18.25 0-.846.515-1.692 1.03-2.563 1.562l-3 1c-1.142 1.782-1.142 1.782-2 4l-1.125 2.188c-1.732 5.568-1.648 10.77.75 16.125 2.639 4.713 6.3 6.995 11.375 8.687 1.79.094 3.583.13 5.375.125l2.836.008c2.696-.129 5.162-.531 7.789-1.133v-9h-10v-8h19v23c-9.858 4.225-21.968 6.398-32.562 2.938-6.64-3.742-12.014-8.007-14.817-15.282-2.285-9.771-1.146-18.734 3.941-27.281 11.839-11.535 27.982-12.236 42.438-5.375M576 395v10l-4.312-1.937c-6.79-2.69-13.846-4.257-21-2.063-4.287 1.905-7.141 5.123-9.688 9-1.8 5.4-1.701 10.936.125 16.313 2.879 4.125 6.009 7.065 10.875 8.687 2.739.07 5.45.094 8.188.063l2.271-.014q2.77-.02 5.541-.049v-9h-9v-9h18v24c-6.873 2.291-11.556 3.527-18.5 3.438l-2.526-.026c-8.317-.229-13.676-2.085-19.849-7.724-6.25-6.917-6.696-12.851-6.46-22.028.684-7.468 3.162-11.852 8.523-17.035 11.767-9.637 24.309-7.434 37.812-2.625M1122 316h9v22h26v-22h9v53h-9v-22h-26v22h-9zM741 392c22.531 0 22.531 0 28.313 5 3.015 3.574 3.016 7.171 2.98 11.645-.577 4.64-3.013 8.075-6.293 11.355l2.438 2.625c3.146 3.658 5.769 7.575 8.375 11.625l1.202 1.862c1.658 2.61 3.003 4.942 3.985 7.888-4.073 1.299-6.956 1.482-11 0-4.413-4.64-7.517-10.445-10.619-16.007-2.942-4.246-5.257-4.968-10.381-5.993v22h-9zm9 8v14c6.909.325 6.909.325 12-3 1.336-2.846 1.336-2.846 1-6-1.81-3.06-1.81-3.06-5-5-2.808-.41-5.14-.242-8 0M663 316h9l.06 2.918q.117 5.4.257 10.797.057 2.328.105 4.658c.046 2.242.104 4.483.164 6.725l.035 2.078c.175 5.827.587 11.076 4.879 15.262 4.658 2.079 8.478 2.353 13.5 1.562 3.574-1.354 3.574-1.354 6-4 1.78-4.971 2.326-9.665 2.414-14.902l.059-2.19c.059-2.282.106-4.563.152-6.846l.117-4.673q.142-5.695.258-11.389h9q.112 7.201.165 14.404.022 2.445.061 4.888c.339 21.647.339 21.647-4.913 27.63-6.662 6.23-13.686 6.608-22.415 6.39-6.68-.535-10.02-2.515-14.773-7.062-4.023-6.153-4.422-12.545-4.32-19.687l.008-2.32c.011-2.415.036-4.829.062-7.243q.016-2.475.027-4.95.035-6.024.098-12.05M604 391h7a138983 138983 0 0 1 14.453 31.934l1.197 2.643q1.13 2.497 2.255 4.996 1.126 2.496 2.267 4.984l1.112 2.447 1 2.186C634 442 634 442 634 444h-10l-6-14h-20l-6 14h-10c4.241-11.426 9.023-22.609 13.813-33.812l2.388-5.604Q601.097 397.791 604 391m3 15q-1.259 2.903-2.5 5.813l-1.406 3.269c-1.27 2.867-1.27 2.867-1.094 5.918h12c-1.599-5.196-3.741-10.066-6-15zM1020 316h30v9h-21v13h21v8h-21v14h22v9h-31zM774 316h30v9h-21v13h21v8h-21v14h22v9h-31zM1107 319c1 1 1 1 1.098 3.285l-.035 2.777-.028 2.786L1108 330l-2.055-.84c-8.355-3.252-15.601-5.675-24.32-2.535-3.994 1.853-6.534 3.368-8.625 7.375-2.106 6.032-2.514 11.038-.113 17.023 2.374 4.216 5.597 6.285 9.988 8.29 8.478 1.865 14.256-.147 22.125-3.313l3-1v10c-9.164 4.79-19.733 5.641-29.871 3.352-6.334-2.569-11.33-6.835-14.45-12.934-3.335-8.338-3.94-15.74-.784-24.215 3.35-6.678 8.442-11.06 15.105-14.203 8.93-2.95 20.495-1.648 29 2M789 392h31v8h-22v14h21v8h-21v14h22v8h-31zM640 392c23 0 23 0 29 3 4.497 4.616 4.441 8.977 4.434 15.098-.495 3.308-1.479 5.209-3.434 7.902-6.695 4.807-13.002 4.087-21 4v22h-9zm9 8v14c6.834.502 6.834.502 13.125-1.625 2.097-2.279 2.097-2.279 2.438-5.375-.4-3-.4-3-1.875-5.375-4.397-2.658-8.625-1.866-13.688-1.625M520.191 316.672c1.621.828 1.621.828 3.809 2.328v11l-4.625-2.5c-3.972-1.983-6.862-3.27-11.375-2.5l-3 2c-.116 2.298-.116 2.298 1 5 2.46 2.289 5.227 4.111 8 6a394 394 0 0 1 4.313 3.125l1.925 1.383c2.95 2.499 4.54 4.826 5.762 8.492.397 5.265-.204 8.507-3 13-2.982 3.448-5.015 4.82-9.637 5.238-7.013.17-11.37-.55-17.363-4.238v-12l6.055 4.59c3.723 2.7 6.36 2.651 10.945 2.41l3-2c-.021-4.643-.021-4.643-2.424-8.435-1.917-1.331-3.865-2.528-5.889-3.69-10.794-6.43-10.794-6.43-12.562-13.25-.158-4.594.013-8.613 3.277-12.14 6.206-5.28 13.914-6.228 21.79-3.813M437 395v10a533 533 0 0 1-7.25-3.687c-4.603-1.612-7.028-1.224-11.75-.313.015 4.64.015 4.64 2.424 8.418 1.919 1.314 3.867 2.497 5.889 3.644 5.87 3.424 10.191 6.405 12.437 13.211.604 5.074-.014 8.456-2.352 13-2.748 3.393-5.432 4.612-9.738 5.125l-3.598-.023-3.59.023c-3.942-.452-7.584-1.51-10.472-4.398-.072-2.02-.084-4.042-.062-6.062l.027-3.348L409 428l3 2v2c5.297 2.74 9.093 3.281 15 3 2.159-1.816 2.159-1.816 2.563-4.25-1.045-5.107-5.734-7.541-9.891-10.29l-2.36-1.522c-4.51-2.959-7.571-5.504-9.187-10.813-.211-5.279.822-8.844 4.188-12.937 8.089-6.585 16.184-5.135 24.687-.188M911 316h29v9h-20v12h20v8h-20v24h-9zM1478 316c3.58-.823 6.436-.97 10 0 4.829 4.394 8.388 9.582 12 15 3.756-1.283 5.222-3.565 7.35-6.8 5.178-7.793 5.178-7.793 9.748-9.055 2.744.038 5.226.26 7.902.855-1.678 3.841-4.177 6.98-6.75 10.25a414 414 0 0 0-3.853 4.992C1513 333 1513 333 1511.365 334.695c-5.612 6.236-5.256 12.725-5.24 20.805l-.062 3.938A594 594 0 0 0 1506 369h-9l.067-2.272c.797-19.214.797-19.214-8.344-35.13L1486 329a231 231 0 0 1-4.625-5.625l-1.977-2.352C1478 319 1478 319 1478 316M965 316h44v8h-18v45h-9v-45h-17zM719 316h44v8h-18v45h-9v-45h-17zM609 316h44v8h-17v45h-9v-45h-18zM534 316h44v8h-18v45h-9v-45h-17zM1313 316h9v44h23v9h-32zM589 316h9v53h-9zM409 316h9v53h-9zM450 392h9v52h-9z"/></svg>